<?xml version="1.0" standalone="no"?>
<!DOCTYPE svg PUBLIC "-//W3C//DTD SVG 20010904//EN"
 "http://www.w3.org/TR/2001/REC-SVG-20010904/DTD/svg10.dtd">
<svg version="1.0" xmlns="http://www.w3.org/2000/svg"
 width="700.000000pt" height="700.000000pt" viewBox="0 0 700.000000 700.000000"
 preserveAspectRatio="xMidYMid meet">
<metadata>
Created by potrace 1.11, written by Peter Selinger 2001-2013
</metadata>
<g transform="translate(0.000000,700.000000) scale(0.100000,-0.100000)"
fill="#000000" stroke="none">
<path d="M3280 6994 c-19 -2 -84 -9 -145 -15 -955 -93 -1835 -591 -2433 -1377
-328 -430 -561 -971 -651 -1514 -38 -226 -45 -320 -45 -588 0 -268 7 -362 45
-588 163 -977 753 -1855 1601 -2383 438 -272 907 -437 1443 -506 196 -25 614
-25 810 0 430 56 786 162 1155 346 729 364 1312 973 1639 1714 144 325 238
675 283 1052 16 139 16 595 0 730 -95 786 -401 1459 -915 2010 -582 625 -1309
996 -2160 1101 -115 14 -550 27 -627 18z m2252 -1461 c2 -5 2 -176 0 -380 l-3
-373 -252 -2 -252 -3 -3 -252 -2 -253 -250 0 -250 0 0 -255 0 -255 -255 0
-255 0 0 -253 0 -254 -41 -42 c-29 -29 -39 -46 -34 -59 4 -9 18 -59 31 -109
80 -316 34 -657 -129 -938 -303 -525 -937 -764 -1510 -569 -378 128 -674 426
-801 807 -84 255 -81 566 10 819 152 423 508 730 954 823 183 39 428 27 606
-30 l72 -22 803 803 804 804 377 0 c207 0 378 -3 380 -7z"/>
<path d="M2193 2959 c-52 -15 -98 -69 -124 -146 -34 -96 -34 -285 -2 -388 90
-282 357 -469 648 -452 183 11 291 70 313 171 11 54 3 101 -27 149 -34 56
-644 645 -685 662 -39 17 -75 18 -123 4z"/>
</g>
</svg>
