<?xml version="1.0" standalone="no"?>
<!DOCTYPE svg PUBLIC "-//W3C//DTD SVG 20010904//EN"
 "http://www.w3.org/TR/2001/REC-SVG-20010904/DTD/svg10.dtd">
<svg version="1.0" xmlns="http://www.w3.org/2000/svg"
 width="700.000000pt" height="700.000000pt" viewBox="0 0 700.000000 700.000000"
 preserveAspectRatio="xMidYMid meet">
<metadata>
Created by potrace 1.11, written by Peter Selinger 2001-2013
</metadata>
<g transform="translate(0.000000,700.000000) scale(0.100000,-0.100000)"
fill="#000000" stroke="none">
<path d="M3290 6994 c-19 -2 -87 -9 -150 -15 -647 -61 -1294 -326 -1825 -746
-141 -111 -437 -407 -548 -548 -413 -521 -662 -1120 -744 -1785 -24 -200 -24
-600 0 -800 82 -665 331 -1264 744 -1785 111 -141 407 -437 548 -548 521 -413
1120 -662 1785 -744 200 -24 600 -24 800 0 665 82 1264 331 1785 744 141 111
437 407 548 548 413 521 662 1120 744 1785 24 200 24 600 0 800 -82 665 -331
1264 -744 1785 -111 141 -407 437 -548 548 -518 410 -1123 663 -1775 742 -126
15 -542 28 -620 19z m2242 -1461 c2 -5 2 -176 0 -380 l-3 -373 -252 -2 -252
-3 -3 -252 -2 -253 -250 0 -250 0 0 -255 0 -255 -255 0 -255 0 0 -255 0 -255
-40 -43 -39 -43 20 -64 c70 -227 68 -515 -7 -751 -45 -143 -110 -266 -210
-395 -178 -230 -440 -394 -734 -459 -101 -22 -340 -31 -438 -16 -429 68 -781
322 -966 698 -91 185 -128 348 -128 558 1 164 18 271 66 413 147 432 504 742
966 838 175 37 449 21 616 -36 l51 -18 804 804 804 804 377 0 c207 0 378 -3
380 -7z"/>
<path d="M2191 2958 c-54 -18 -96 -69 -122 -145 -21 -58 -24 -87 -23 -198 0
-108 4 -141 23 -195 70 -203 224 -355 426 -421 142 -47 378 -25 469 45 64 48
87 154 51 227 -18 38 -635 651 -677 674 -38 21 -106 26 -147 13z"/>
</g>
</svg>
