<svg xmlns="http://www.w3.org/2000/svg" width="124.17835mm" height="160.34518mm" viewBox="0 0 124.17835 160.34518">
  <defs>
    <linearGradient gradientUnits="userSpaceOnUse" id="linear-gradient" x1="40.993249" y1="84.030926" x2="165.1716" y2="84.030926">
      <stop offset="0" stop-color="#db4367"/>
      <stop offset=".375" stop-color="#db4367"/>
      <stop offset=".376" stop-color="#54b5f9"/>
    </linearGradient>
  </defs>
  <g id="logo" transform="translate(-40.993249, -3.8583328)">
    <path
       d="m 98.037865,4.8638459 c 0.291883,0.089816 0.561313,0.1571758 0.853199,0.246978 0.763397,0.2245228 1.526796,0.4266036 2.290196,0.651129 0.62867,0.2020676 1.27977,0.3816985 1.90842,0.5613135 5.38861,1.5492731 10.75487,3.1433771 16.12139,4.7599596 1.18999,0.336791 2.35749,0.696037 3.52501,1.055281 0.94301,0.26943 1.88606,0.561316 2.82904,0.830746 1.75133,0.538861 3.48019,1.055281 5.23152,1.571752 4.78243,1.392047 9.49743,2.87401 14.21257,4.400677 0.24696,0.08981 0.47152,0.157176 0.71848,0.224523 0.22452,0.08982 0.44908,0.157176 0.69604,0.224523 1.75133,0.583769 3.52502,1.12263 5.29884,1.661541 2.44729,0.763397 4.89468,1.549273 7.34197,2.31267 0.40418,0.134723 0.8083,0.269431 1.21245,0.404154 0.56132,0.179615 1.12263,0.359243 1.70638,0.538861 0.24696,0.08981 0.24696,0.08981 0.51642,0.179615 2.22273,0.718489 2.22273,0.718489 2.67181,1.549273 0,0.718489 -0.29189,1.25735 -0.62868,1.863598 -0.0674,0.157175 -0.15716,0.291883 -0.22452,0.426606 -0.53885,1.032827 -1.12263,2.043175 -1.72884,3.031108 -1.05529,1.773809 -2.0207,3.56997 -2.94132,5.38861 -0.0674,0.13472 -0.13473,0.26943 -0.22453,0.404151 -1.10019,2.132965 -2.15545,4.288536 -3.23318,6.44398 -0.20206,0.381698 -0.40415,0.785852 -0.58375,1.167537 -0.11226,0.224523 -0.22452,0.426606 -0.31435,0.628674 -0.44905,0.875654 -0.87564,1.773809 -1.32472,2.649474 -0.22452,0.449061 -0.44907,0.898107 -0.6736,1.324737 -1.21243,2.469769 -2.44729,4.917186 -3.74954,7.364476 -0.7634,1.437005 -1.50432,2.896362 -2.22277,4.378325 -0.83074,1.639062 -1.66153,3.300603 -2.5147,4.917186 -1.23492,2.335022 -2.44729,4.715002 -3.61495,7.07263 -0.11226,0.224525 -0.2245,0.426606 -0.33679,0.651129 -1.34721,2.694305 -2.64946,5.38861 -3.90676,8.127873 -1.50431,3.300603 -3.12089,6.556248 -4.7375,9.811766 -0.31432,0.606224 -0.60621,1.234898 -0.92053,1.863598 -0.0674,0.112268 -0.11229,0.246978 -0.17963,0.359246 -0.8532,1.728851 -1.68402,3.480181 -2.51473,5.231511 -0.58378,1.257353 -1.21245,2.514723 -1.8411,3.749543 -0.74097,1.48184 -1.4595,2.98628 -2.20041,4.49059 -2.15546,4.4906 -4.37833,8.93623 -6.7808,13.31468 -0.42661,0.7634 -0.87564,1.54928 -1.30225,2.33503 -0.38169,0.69603 -0.7634,1.39204 -1.14509,2.06565 -0.96546,1.77381 -1.9309,3.54749 -2.89636,5.3213 -1.01037,1.88608 -2.06565,3.74954 -3.16585,5.59081 -0.0674,0.1347 -0.15718,0.26942 -0.22452,0.40415 -0.20208,0.31432 -0.40416,0.60621 -0.62868,0.8981 -0.67358,1.39205 -0.17962,3.05358 0.13472,4.51294 0.0225,0.20207 0.0674,0.40416 0.11227,0.60622 0.13472,0.65114 0.26943,1.30225 0.40415,1.97588 0.20207,0.8981 0.3817,1.81864 0.56131,2.73926 l 0.13473,0.67357 c 0.40415,1.97586 0.76339,3.92925 1.12263,5.90513 0.40415,2.20038 0.85319,4.37833 1.41452,6.55625 0.47151,1.8411 0.47151,1.8411 0.33679,2.53719 -0.83074,0.60621 -1.52679,0.78587 -2.55955,0.87567 -0.13473,0.0225 -0.26943,0.0225 -0.40416,0.0449 -0.4266,0.0449 -0.85319,0.0898 -1.27978,0.11226 -0.29188,0.0449 -0.58376,0.0674 -0.87565,0.0898 -3.4577,0.35923 -3.4577,0.35923 -3.99656,-0.0674 -0.3817,-0.47151 -0.42661,-0.78586 -0.51641,-1.39205 -0.0225,-0.22453 -0.0449,-0.42661 -0.0674,-0.62868 -0.0225,-0.22452 -0.0449,-0.42661 -0.0674,-0.67357 -0.0674,-0.44908 -0.11227,-0.92057 -0.17961,-1.36957 -0.0674,-0.7185 -0.15718,-1.45949 -0.24698,-2.17794 -0.0674,-0.71848 -0.15718,-1.41452 -0.24698,-2.11048 l -0.0674,-0.67357 c -0.0449,-0.29189 -0.0449,-0.29189 -0.0898,-0.60624 l -0.0449,-0.53885 c -0.0674,-0.15716 -0.0674,-0.15716 -0.13472,-0.31433 -0.60622,0.24697 -0.80829,0.60622 -1.05528,1.18999 -0.0674,0.15717 -0.13472,0.31433 -0.20207,0.47152 -0.0674,0.1796 -0.13472,0.33679 -0.22452,0.49395 -0.875654,1.97585 -1.975868,3.72718 -3.233168,5.47851 -0.20207,0.29189 -0.20207,0.29189 -0.426606,0.60622 -1.212443,1.30228 -2.986278,1.36959 -4.670171,1.59411 -0.404151,0.0674 -0.808292,0.11226 -1.212443,0.17963 -12.75334,1.79615 -26.943049,0.11226 -37.473889,-7.76859 -7.274694,-5.70288 -10.956932,-13.65117 -12.214232,-22.69992 -1.077735,-9.22809 3.906774,-18.09751 7.589012,-26.26996 1.212442,-2.73927 2.31267,-5.50088 3.412744,-8.2851 1.347216,-3.412744 2.739263,-6.825615 4.176268,-10.216007 1.302258,-3.143377 2.626995,-6.286754 3.906774,-9.45261 0.04491,-0.157176 0.112268,-0.336791 0.179615,-0.493953 0.493956,-1.212446 0.987922,-2.424938 1.481836,-3.63728 6.129527,-15.22349 6.129527,-15.22349 9.026016,-21.64461 0.808292,-1.773809 1.594104,-3.592449 2.357501,-5.38861 2.469769,-5.770372 4.984496,-11.495786 7.499223,-17.2212 0.224526,-0.493952 0.449062,-1.010374 0.673585,-1.504314 2.043176,-4.647692 4.108831,-9.295384 6.196965,-13.94333 0.359243,-0.808292 0.718489,-1.639062 1.100187,-2.44729 0.246978,-0.583769 0.516409,-1.167538 0.763397,-1.75133 0.134721,-0.269431 0.246978,-0.538861 0.381699,-0.8307469 0.651129,-1.459484 1.324737,-2.94132 2.043176,-4.3783251 0.04491,-0.1347206 0.112268,-0.2694305 0.179615,-0.4266036 1.12263,-2.222754 3.996563,-0.7409445 5.927471,-0.1796177 z M 98.48691,15.753461 c -0.404151,0.516409 -0.628673,0.898107 -0.875651,1.504315 -0.06736,0.179615 -0.134721,0.336791 -0.224523,0.493954 -0.224523,0.538861 -0.471514,1.100187 -0.696037,1.639062 -0.157176,0.381698 -0.336791,0.763397 -0.493953,1.145082 -0.359246,0.785852 -0.696037,1.571752 -1.032828,2.357501 -0.381698,0.920559 -0.785849,1.841119 -1.18999,2.761742 -1.392047,3.120898 -2.716784,6.264273 -3.884295,9.475087 -0.08981,0.224526 -0.179615,0.471514 -0.26943,0.696037 -0.06736,0.20207 -0.134721,0.426606 -0.224523,0.628677 -0.04491,0.179615 -0.112268,0.359243 -0.179618,0.538861 -0.157173,0.606221 -0.224522,1.05528 -0.13472,1.661541 0.404151,0.20207 0.404151,0.20207 0.920559,0.20207 l 0.606222,0.06736 0.673584,0.06736 c 5.433568,0.583769 10.507853,2.44729 15.312393,5.051806 0.20206,0.112268 0.4266,0.224523 0.62867,0.336791 1.48184,0.808292 2.64948,1.863598 3.86182,3.031109 0.13472,0.112268 0.29188,0.246978 0.4266,0.381699 1.07774,1.032827 1.90843,2.177923 2.71679,3.435223 0.11227,0.157175 0.22453,0.33679 0.33679,0.516408 2.46978,3.929253 3.77203,8.195183 4.60285,12.73048 0.0674,0.336791 0.0674,0.336791 0.13473,0.696037 1.21245,9.093327 -2.06566,18.07464 -6.64603,25.79878 -0.11227,0.179615 -0.11227,0.179615 -0.22453,0.359243 -0.4266,0.718489 -0.87565,1.414526 -1.34722,2.110486 -0.0674,0.112268 -0.15717,0.224523 -0.22452,0.336791 -2.06565,3.165856 -4.73748,5.837682 -7.76859,8.083037 -0.11227,0.0898 -0.24697,0.17962 -0.35924,0.26943 -0.11227,0.0898 -0.22453,0.15718 -0.31434,0.22453 -0.42661,0.35924 -0.69604,0.71849 -0.98792,1.18999 -0.0225,0.4266 -0.0225,0.4266 0.13472,0.8981 0.26943,1.10019 0.47151,2.2004 0.67358,3.30061 0.0225,0.17961 0.0674,0.35924 0.0898,0.53886 0.11227,0.58376 0.20207,1.16753 0.31434,1.72885 0.0225,0.20207 0.0674,0.40415 0.0898,0.60622 0.51641,2.85153 0.96547,5.68058 1.32474,8.55446 0.0674,0.35925 0.0674,0.35925 0.11226,0.69604 0.0225,0.20207 0.0449,0.40415 0.0674,0.62868 0.11227,0.60622 0.26943,1.12263 0.56132,1.68402 h 0.67358 c 1.41453,-1.50432 2.2004,-3.7272 3.05359,-5.5908 0.15717,-0.33679 0.31434,-0.67358 0.47151,-1.01037 0.74095,-1.59411 1.45949,-3.16586 2.2004,-4.75996 2.06566,-4.51295 4.33338,-8.91375 6.73582,-13.268958 1.01039,-1.841119 1.93093,-3.704717 2.87401,-5.590794 0.7185,-1.437005 1.437,-2.87401 2.20041,-4.310888 1.9309,-3.63728 3.72721,-7.341997 5.43356,-11.091672 1.05529,-2.37998 2.15545,-4.715002 3.30062,-7.050151 0.8981,-1.863598 1.7738,-3.727196 2.627,-5.590794 1.01036,-2.200402 2.06565,-4.378325 3.14335,-6.533769 0.15719,-0.336791 0.15719,-0.336791 0.33682,-0.673582 0.60621,-1.18999 1.21243,-2.402459 1.86359,-3.592449 1.18999,-2.267712 2.35749,-4.557903 3.48017,-6.870573 2.98628,-6.01726 2.98628,-6.01726 4.58039,-8.82396 0.60621,-1.032827 1.07773,-2.088134 1.48183,-3.210687 0.22452,-0.493953 0.22452,-0.493953 0.60624,-0.965467 0.33678,-0.404151 0.33678,-0.404151 0.29186,-0.898107 -0.33679,-0.651129 -0.8981,-0.78585 -1.54927,-1.032828 -0.13473,-0.0449 -0.26942,-0.112268 -0.42659,-0.157173 -0.44907,-0.179617 -0.89813,-0.336793 -1.34723,-0.516408 -0.31432,-0.112268 -0.65111,-0.224523 -0.96546,-0.359245 -0.80828,-0.291883 -1.61658,-0.606221 -2.44729,-0.898104 -0.42662,-0.157176 -0.83074,-0.314338 -1.25736,-0.471514 -3.95173,-1.459484 -7.9258,-2.716784 -11.96734,-3.929253 -1.25735,-0.381698 -2.51471,-0.763397 -3.79449,-1.167535 -0.17963,-0.04491 -0.35926,-0.112268 -0.53886,-0.157176 -0.38171,-0.112268 -0.74096,-0.224522 -1.12262,-0.33679 -5.59081,-1.75133 -11.20394,-3.412744 -16.86181,-4.939538 -2.2004,-0.583769 -4.35584,-1.212445 -6.51129,-1.930908 -0.15717,-0.06736 -0.33679,-0.134723 -0.53886,-0.179618 -0.13472,-0.06736 -0.29188,-0.112268 -0.44906,-0.157176 -0.26943,-0.06736 -0.26943,-0.06736 -0.5164,-0.13472 -0.134725,-0.04491 -0.246979,-0.08982 -0.381703,-0.134721 -0.471511,-0.134723 -0.471511,-0.134723 -1.18999,-0.08981 z M 84.11686,48.17529 c -0.08981,0.246978 -0.08981,0.246978 -0.179615,0.471514 -0.08982,0.202067 -0.157175,0.381698 -0.246978,0.583766 -0.112268,0.314338 -0.112268,0.314338 -0.246975,0.651129 -0.224523,0.493956 -0.449059,0.987922 -0.673584,1.481836 -0.134721,0.291886 -0.269431,0.583769 -0.404151,0.853199 -0.06736,0.157176 -0.134721,0.314338 -0.20207,0.449059 -0.449059,1.010375 -0.898105,1.998345 -1.347216,3.00863 -0.426607,0.898107 -0.830744,1.796161 -1.234898,2.694305 -2.200402,4.82727 -4.310888,9.654667 -6.264275,14.57198 -0.449059,1.145085 -0.92056,2.290191 -1.369568,3.412744 -1.639062,4.041521 -3.233166,8.083042 -4.580382,12.214225 -0.06736,0.157176 -0.112268,0.314338 -0.179615,0.471514 -0.13472,0.449059 -0.291883,0.898107 -0.426606,1.347216 -0.04491,0.13472 -0.08981,0.26943 -0.134721,0.404151 -0.26943,0.875654 -0.246978,1.526794 -0.02246,2.424938 0.336794,0.359246 0.336794,0.359246 0.785852,0.606224 3.435223,2.37998 5.994908,6.66852 8.195183,10.17105 0.112268,0.17961 0.112268,0.17961 0.246976,0.38169 7.229729,11.51827 8.868791,25.91054 9.205595,39.20235 0.02246,1.18999 0.06736,2.37998 0.08982,3.56997 0.02246,0.40415 0.02246,0.80831 0.04491,1.21246 -0.112268,2.35749 -0.112268,2.35749 0.740942,4.35583 0.853199,0.0674 1.706372,0 2.559558,-0.0449 0.246977,-0.0225 0.493955,-0.0225 0.740944,-0.0225 0.224523,-0.0225 0.449059,-0.0225 0.673582,-0.0449 0.224525,0 0.426606,0 0.651129,-0.0225 0.651129,-0.11229 0.808291,-0.24698 1.212445,-0.7634 0.246975,-0.44908 0.471511,-0.8981 0.696036,-1.36956 0.06736,-0.13473 0.134721,-0.26945 0.202068,-0.40415 0.224525,-0.44908 0.449061,-0.89813 0.651129,-1.34723 0.08982,-0.15717 0.157176,-0.31433 0.224525,-0.47152 1.122628,-2.31267 2.155444,-4.6477 3.143377,-7.00519 0.08981,-0.22452 0.08981,-0.22452 0.157174,-0.42661 0.943014,-2.24523 1.414526,-3.90676 1.010374,-6.33172 l -0.06736,-0.40415 c -0.06736,-0.44905 -0.157176,-0.87564 -0.224523,-1.30225 -0.04491,-0.31433 -0.112268,-0.62867 -0.157175,-0.94301 -0.134723,-0.80829 -0.269431,-1.63906 -0.404154,-2.44729 -0.157173,-0.8532 -0.291883,-1.70637 -0.449059,-2.55956 -0.291883,-1.7738 -0.606221,-3.56997 -0.898104,-5.34377 -0.08982,-0.58377 -0.20207,-1.16754 -0.291886,-1.72886 -0.359243,-2.17792 -0.740942,-4.35584 -1.122629,-6.53376 -0.02246,-0.17962 -0.06736,-0.3817 -0.08981,-0.56132 -0.381699,-2.11048 -0.740945,-4.24358 -1.12263,-6.37654 -0.02246,-0.15718 -0.06736,-0.33679 -0.08982,-0.51641 -0.157174,-0.87565 -0.314336,-1.72885 -0.471512,-2.60451 -0.02246,-0.15718 -0.04491,-0.33679 -0.08982,-0.51641 -0.04491,-0.31434 -0.112268,-0.65113 -0.179615,-0.96547 -0.561316,-3.188331 -0.561316,-3.188331 0.04491,-4.108827 0.830744,-1.032828 1.81864,-1.75133 2.918841,-2.492248 1.594104,-1.077735 3.031109,-2.245233 4.400677,-3.592449 0.269431,-0.246978 0.538864,-0.493956 0.808294,-0.740944 4.37832,-4.086352 7.27469,-10.171049 8.68921,-15.91945 0.0449,-0.157176 0.0674,-0.291884 0.11227,-0.449059 0.3817,-1.481836 0.44906,-2.963799 0.44906,-4.490593 v -0.426586 c -0.0225,-4.984496 -1.21245,-10.283317 -4.80493,-13.92047 l -0.47151,-0.471514 c -0.13472,-0.157174 -0.24698,-0.291883 -0.3817,-0.426604 -1.14508,-1.279779 -2.60451,-2.132965 -4.10883,-2.94132 -0.13472,-0.08982 -0.246975,-0.157176 -0.381698,-0.224525 -3.525012,-1.908429 -7.386955,-2.514727 -11.316208,-2.94132 -0.224523,-0.02246 -0.426606,-0.04491 -0.651129,-0.06736 -0.20207,-0.02246 -0.381699,-0.02246 -0.583769,-0.04491 -0.538861,-0.08981 -0.538861,-0.08981 -1.122627,-0.336791 -0.92056,-0.381699 -0.92056,-0.381699 -1.661541,0.112268 z M 61.551501,102.7129 c -0.134721,0.26943 -0.246976,0.53886 -0.359244,0.78585 -0.06736,0.15717 -0.134723,0.31434 -0.20207,0.44906 -0.224523,0.53886 -0.449059,1.07773 -0.673581,1.61658 -0.134724,0.29188 -0.134724,0.29188 -0.246978,0.58377 -0.404151,0.92056 -0.78585,1.84112 -1.167538,2.76174 -0.628674,1.48183 -1.279779,2.98628 -1.930908,4.46811 -1.796161,4.08635 -3.480181,8.15035 -4.939538,12.37145 -0.157173,0.44907 -0.336791,0.89811 -0.516406,1.34722 -0.808291,2.06565 -0.740944,3.48018 -0.157175,5.59078 l 0.13472,0.53888 c 1.953387,6.98283 5.006975,11.74279 11.405997,15.35811 2.963799,1.59409 6.062218,2.76175 9.295384,3.68223 0.179618,0.0449 0.336793,0.0898 0.493956,0.13473 0.920559,0.24696 1.728851,0.38169 2.671826,0.31432 0.26943,-0.24696 0.26943,-0.24696 0.246975,-0.69604 -0.02246,-0.20206 -0.02246,-0.40415 -0.02246,-0.62865 -0.02246,-0.22452 -0.02246,-0.47151 -0.02246,-0.69603 -0.02246,-0.26946 -0.02246,-0.51642 -0.02246,-0.78587 -0.02246,-0.26943 -0.02246,-0.53885 -0.04491,-0.80828 -0.02246,-0.7185 -0.04491,-1.437 -0.06736,-2.15545 -0.02246,-0.44905 -0.02246,-0.8981 -0.04491,-1.34721 -0.179615,-4.89471 -0.426606,-9.78942 -0.920559,-14.66216 l -0.06736,-0.74094 c -1.077735,-9.85673 -4.108831,-19.1516 -10.642599,-26.76398 -0.291883,-0.33679 -0.291883,-0.33679 -0.651129,-0.8981 -0.291883,-0.3817 -0.291883,-0.3817 -0.763397,-0.49396 -0.516409,0.11227 -0.516409,0.11227 -0.78585,0.67359 z"
       style="fill: url(#linear-gradient); fill-opacity: 1; stroke-width: 0.265; stroke-miterlimit: 10; stroke-dasharray: none;"/>
  </g>
</svg>
