<?xml version="1.0" standalone="no"?>
<!DOCTYPE svg PUBLIC "-//W3C//DTD SVG 20010904//EN"
 "http://www.w3.org/TR/2001/REC-SVG-20010904/DTD/svg10.dtd">
<svg version="1.0" xmlns="http://www.w3.org/2000/svg"
 width="1212.000000pt" height="1212.000000pt" viewBox="0 0 1212.000000 1212.000000"
 preserveAspectRatio="xMidYMid meet">
<metadata>
Created by potrace 1.14, written by Peter Selinger 2001-2017
</metadata>
<g transform="translate(0.000000,1212.000000) scale(0.100000,-0.100000)"
fill="#000000" stroke="none">
<path d="M5320 12109 c-46 -19 -72 -54 -127 -169 -67 -140 -77 -163 -75 -172
1 -5 -3 -8 -8 -8 -5 0 -10 -6 -10 -14 0 -7 -15 -43 -34 -80 -19 -36 -32 -66
-30 -66 2 0 -10 -28 -26 -62 -17 -35 -30 -69 -30 -75 0 -7 -4 -13 -10 -13 -5
0 -10 -5 -10 -11 0 -10 -45 -116 -136 -314 -12 -27 -40 -90 -62 -140 -22 -49
-54 -120 -71 -157 -17 -37 -42 -96 -57 -130 -14 -35 -42 -96 -60 -136 -19 -41
-34 -75 -34 -77 0 -2 -15 -36 -34 -77 -18 -40 -46 -102 -62 -138 -15 -36 -31
-67 -34 -70 -3 -3 -6 -12 -8 -20 -2 -8 -9 -28 -17 -45 -41 -92 -67 -150 -103
-235 -22 -52 -55 -126 -73 -165 -18 -38 -33 -72 -34 -75 -14 -49 -19 -60 -26
-60 -5 0 -9 -6 -9 -14 0 -8 -14 -45 -31 -82 -34 -75 -46 -103 -79 -179 -33
-75 -43 -99 -45 -105 -1 -3 -13 -31 -28 -64 -15 -32 -27 -60 -27 -63 0 -2 -12
-30 -26 -61 -14 -31 -29 -66 -34 -77 -5 -11 -20 -46 -34 -78 -14 -32 -26 -60
-26 -62 0 -2 -14 -35 -31 -72 -17 -38 -32 -72 -33 -78 -1 -5 -8 -21 -16 -35
-14 -25 -26 -51 -52 -121 -7 -20 -19 -44 -26 -52 -7 -8 -14 -25 -15 -36 -1
-12 -5 -21 -9 -21 -4 0 -8 -8 -8 -19 0 -10 -7 -24 -15 -31 -8 -6 -14 -15 -13
-18 1 -4 -4 -20 -10 -35 -7 -16 -12 -33 -12 -38 0 -5 -4 -9 -10 -9 -5 0 -10
-4 -10 -9 0 -5 -4 -20 -9 -33 -5 -13 -9 -25 -9 -28 0 -3 -14 -32 -30 -65 -17
-33 -47 -100 -67 -150 -21 -49 -48 -113 -61 -142 -13 -28 -24 -58 -24 -65 0
-8 -4 -18 -8 -23 -5 -6 -25 -53 -46 -105 -21 -52 -42 -104 -46 -115 -5 -11
-25 -60 -45 -110 -20 -49 -40 -99 -45 -110 -5 -11 -43 -105 -85 -210 -41 -104
-80 -199 -85 -210 -5 -11 -52 -126 -104 -255 -52 -129 -103 -256 -114 -282
-11 -25 -18 -49 -15 -52 4 -3 0 -6 -7 -6 -7 0 -11 -3 -8 -6 4 -3 -5 -31 -19
-62 -13 -31 -29 -66 -33 -77 -5 -11 -21 -49 -35 -85 -15 -36 -32 -78 -40 -95
-7 -16 -23 -55 -35 -85 -12 -30 -28 -68 -35 -85 -20 -45 -136 -322 -140 -335
-1 -3 -6 -16 -12 -30 -12 -28 -70 -171 -85 -210 -5 -14 -9 -27 -10 -30 0 -3
-6 -16 -13 -30 -7 -14 -21 -45 -30 -70 -16 -44 -29 -75 -55 -135 -8 -16 -14
-32 -14 -35 -2 -10 -43 -113 -66 -165 -5 -11 -34 -83 -66 -160 -31 -77 -59
-144 -62 -150 -4 -5 -7 -12 -8 -15 -2 -9 -17 -45 -52 -120 -19 -41 -46 -100
-59 -130 -14 -30 -47 -102 -74 -158 -27 -57 -49 -105 -49 -107 0 -3 -20 -46
-44 -98 -24 -51 -49 -110 -57 -130 -7 -20 -16 -37 -19 -37 -4 0 -7 -6 -7 -12
0 -11 -43 -125 -83 -223 -14 -35 -23 -60 -25 -70 0 -5 -5 -19 -9 -30 -19 -49
-36 -96 -36 -103 0 -4 -5 -25 -11 -47 -17 -62 -18 -64 -39 -160 -10 -49 -22
-112 -25 -140 -4 -27 -10 -68 -15 -90 -9 -39 -6 -375 3 -425 4 -22 13 -69 23
-125 8 -51 15 -82 21 -105 3 -14 7 -32 9 -40 3 -22 10 -50 25 -100 7 -25 13
-50 15 -56 6 -31 66 -210 94 -278 38 -96 122 -270 132 -274 5 -2 8 -9 8 -16 0
-15 139 -230 151 -234 5 -2 9 -10 9 -17 0 -8 6 -18 14 -22 7 -4 15 -13 17 -19
11 -32 218 -250 319 -335 87 -74 188 -149 200 -149 6 0 10 -4 10 -10 0 -5 7
-10 15 -10 8 0 15 -4 15 -10 0 -5 4 -10 9 -10 5 0 45 -22 88 -48 43 -27 93
-55 111 -63 17 -8 32 -17 32 -21 0 -5 3 -7 8 -6 4 1 50 -19 102 -44 83 -39
144 -64 300 -123 60 -23 75 -28 85 -30 6 -2 37 -11 70 -21 33 -10 63 -19 68
-20 4 -1 8 -2 10 -4 2 -2 18 -5 60 -14 16 -3 43 -9 60 -15 38 -12 137 -32 227
-46 14 -2 34 -6 45 -8 31 -7 126 -20 165 -23 19 -1 35 -3 35 -4 0 -3 43 -7
160 -16 179 -14 795 -9 795 6 0 3 17 6 38 7 50 3 170 16 232 27 14 2 52 7 85
11 33 4 69 9 80 11 11 2 36 7 55 10 46 8 150 47 150 56 0 5 5 8 10 8 14 0 40
28 75 80 16 25 32 47 35 50 3 3 21 30 40 60 19 30 37 57 40 60 10 8 118 209
126 233 25 81 98 187 116 169 6 -6 16 -62 23 -132 6 -57 17 -147 20 -168 2
-12 7 -57 10 -100 4 -42 9 -86 12 -97 5 -24 13 -86 17 -140 2 -22 4 -40 5 -40
1 0 4 -15 5 -32 5 -43 31 -81 64 -94 24 -9 139 -6 237 6 29 4 102 11 195 20
95 9 127 16 177 41 69 33 70 37 18 244 -2 8 -8 35 -15 60 -6 25 -12 54 -15 65
-2 11 -19 97 -38 190 -19 94 -38 186 -41 205 -3 19 -10 57 -16 84 -5 26 -7 52
-4 57 3 5 1 9 -3 9 -5 0 -9 8 -10 18 -1 9 -4 31 -8 47 -3 17 -8 41 -10 55 -2
14 -15 84 -30 155 -14 72 -28 141 -31 155 -2 14 -11 54 -19 90 -9 36 -18 81
-21 100 -2 19 -7 44 -11 55 -4 11 -7 27 -8 35 -1 8 -8 41 -14 74 -28 128 -19
225 24 283 14 17 39 58 56 90 18 32 37 65 44 73 18 24 115 199 115 209 0 5 3
11 8 13 4 2 21 30 37 63 17 33 36 66 43 73 6 7 12 18 12 23 0 5 11 27 24 48
14 21 22 42 19 45 -4 3 -1 6 5 6 7 0 12 4 12 9 0 5 17 40 39 78 21 37 60 109
86 158 27 50 56 102 67 117 10 14 18 29 18 32 0 4 20 43 45 86 139 245 365
678 365 699 0 5 6 14 14 20 8 7 18 25 21 41 3 16 13 34 21 41 8 6 14 19 14 29
0 10 7 23 15 30 8 6 14 15 13 18 -2 12 84 187 96 194 6 4 8 8 4 8 -4 0 23 62
61 138 220 442 401 819 401 833 0 5 4 9 9 9 8 0 17 21 26 59 2 8 9 17 15 21 7
4 11 10 10 14 -3 11 82 180 94 188 6 4 8 8 4 8 -4 0 25 64 64 143 40 78 73
148 74 155 1 8 10 22 18 31 9 10 16 21 16 25 0 4 23 55 50 113 28 58 50 109
50 114 0 5 4 9 10 9 5 0 9 3 8 8 -2 10 17 54 53 125 16 31 29 59 29 62 1 12
36 81 45 87 6 4 7 8 3 8 -3 0 22 57 56 128 35 70 69 142 77 160 8 17 17 32 21
32 5 0 8 5 8 11 0 11 151 317 259 524 26 50 85 164 132 255 46 91 88 168 92
171 5 3 8 9 7 13 0 3 42 91 94 194 142 282 160 316 171 324 5 4 6 8 1 8 -5 0
-3 8 5 18 14 17 52 90 53 104 1 3 4 10 8 14 4 4 51 95 104 203 53 108 101 198
105 199 5 2 9 9 9 15 0 17 222 460 235 469 5 4 7 8 3 8 -7 0 158 329 247 495
21 39 45 84 53 100 8 17 24 42 34 58 11 15 16 27 11 27 -4 0 -3 4 2 8 13 9 75
111 75 123 0 5 4 9 10 9 5 0 9 3 8 8 -1 4 16 39 39 77 63 108 123 231 123 254
0 65 -37 89 -230 150 -74 24 -144 47 -155 52 -22 9 -241 78 -265 84 -8 2 -34
10 -58 19 -23 8 -44 15 -47 16 -3 0 -7 1 -10 1 -3 1 -9 3 -15 4 -5 1 -12 4
-15 5 -3 1 -9 4 -15 5 -5 1 -11 3 -12 5 -2 1 -10 3 -18 5 -8 2 -67 21 -130 41
-97 30 -169 52 -260 79 -8 2 -55 18 -105 35 -49 17 -97 32 -105 34 -8 2 -22 6
-30 9 -22 8 -241 78 -430 137 -91 28 -176 55 -190 60 -25 9 -131 40 -160 47
-20 5 -31 8 -55 17 -41 16 -72 25 -165 51 -52 15 -129 37 -170 50 -41 12 -115
35 -165 50 -49 15 -106 32 -125 38 -19 5 -37 10 -40 10 -3 0 -16 4 -30 9 -14
5 -32 11 -40 13 -46 11 -168 48 -183 57 -11 5 -21 7 -24 4 -3 -3 -15 0 -27 6
-11 7 -28 13 -36 14 -15 3 -82 22 -110 32 -8 3 -19 6 -25 8 -5 1 -102 30 -215
64 -202 61 -291 87 -320 95 -35 10 -122 36 -220 65 -58 18 -118 34 -135 37
-16 3 -35 9 -40 14 -6 4 -23 10 -37 13 -15 2 -67 17 -115 31 -48 15 -94 29
-103 30 -8 2 -46 13 -85 25 -38 12 -77 23 -85 25 -8 2 -15 4 -15 5 0 1 -7 3
-16 5 -9 1 -43 11 -75 21 -33 9 -65 18 -72 20 -6 1 -51 15 -100 30 -48 15 -91
29 -97 30 -5 1 -32 10 -60 19 -63 20 -172 28 -205 14z m520 -902 c9 -2 20 -6
25 -9 9 -5 141 -50 155 -53 10 -2 97 -29 150 -46 30 -10 89 -27 130 -38 41
-11 134 -36 205 -56 72 -20 137 -38 145 -40 55 -15 94 -26 160 -44 41 -12 99
-28 129 -37 29 -8 58 -17 62 -20 5 -3 22 -7 37 -10 15 -2 38 -9 52 -14 14 -5
59 -18 100 -30 41 -12 103 -31 138 -42 34 -11 68 -21 75 -22 7 -2 19 -6 27 -9
16 -7 275 -86 300 -92 8 -2 15 -4 15 -5 0 -1 7 -3 15 -5 18 -4 94 -27 165 -48
67 -21 201 -62 300 -93 44 -13 85 -26 90 -27 21 -6 191 -59 205 -64 8 -4 20
-7 25 -8 20 -5 341 -115 410 -140 39 -14 108 -40 155 -56 47 -16 94 -34 105
-39 11 -5 83 -32 160 -60 253 -93 283 -113 255 -180 -7 -16 -16 -30 -21 -30
-5 0 -9 -7 -9 -15 0 -8 -4 -15 -8 -15 -4 0 -17 -24 -27 -52 -20 -56 -106 -229
-182 -363 -40 -72 -216 -413 -219 -425 -4 -19 -57 -121 -65 -125 -5 -4 -9 -14
-9 -24 0 -10 -7 -24 -15 -31 -8 -6 -14 -15 -13 -18 2 -9 -32 -81 -55 -114 -10
-16 -15 -28 -11 -28 3 0 2 -6 -4 -12 -21 -27 -403 -778 -395 -778 3 0 0 -8 -8
-17 -8 -10 -22 -34 -31 -53 -52 -110 -110 -233 -136 -290 -16 -36 -51 -110
-78 -165 -26 -55 -48 -102 -49 -105 -2 -6 -66 -141 -155 -324 -38 -80 -70
-148 -70 -150 0 -4 -50 -116 -83 -186 -7 -14 -16 -28 -22 -32 -5 -4 -6 -8 -2
-8 4 0 2 -10 -5 -22 -7 -13 -13 -25 -13 -28 -9 -38 -444 -902 -457 -908 -5 -2
-8 -11 -8 -21 0 -9 -4 -21 -9 -26 -5 -6 -57 -104 -115 -220 -58 -115 -125
-246 -149 -290 -24 -44 -58 -107 -75 -139 -18 -33 -37 -65 -43 -73 -6 -7 -8
-13 -5 -13 4 0 -2 -13 -13 -28 -11 -16 -21 -35 -23 -43 -2 -8 -5 -16 -8 -19
-3 -3 -22 -36 -42 -75 -99 -191 -126 -245 -122 -245 3 0 -2 -7 -10 -16 -9 -8
-14 -19 -11 -24 3 -5 2 -10 -3 -12 -8 -4 -92 -174 -92 -189 0 -5 -4 -9 -8 -9
-5 0 -9 -6 -9 -12 0 -7 -18 -50 -41 -96 -22 -45 -38 -82 -36 -82 3 0 -4 -13
-16 -30 -12 -16 -19 -30 -17 -30 3 0 -17 -45 -44 -100 -27 -55 -49 -107 -49
-115 0 -8 -4 -15 -10 -15 -5 0 -10 -9 -10 -20 0 -11 -4 -20 -10 -20 -5 0 -10
-7 -10 -15 0 -8 -9 -31 -19 -52 -11 -21 -33 -71 -51 -111 -59 -138 -143 -273
-178 -287 -21 -8 -62 22 -62 46 0 11 -5 30 -12 42 -6 12 -12 40 -14 62 -1 22
-5 54 -8 70 -4 25 -27 187 -41 288 -14 96 -16 114 -20 127 -2 8 -6 33 -9 55
-4 22 -8 51 -11 65 -6 27 -11 61 -20 125 -4 22 -9 47 -12 55 -3 8 -7 29 -8 45
-6 53 -14 97 -46 245 -17 80 -31 156 -31 169 0 39 39 80 162 174 103 79 161
130 262 231 84 85 108 112 186 210 43 54 41 52 87 121 22 33 43 62 46 65 37
33 345 601 332 613 -3 4 -1 7 5 7 7 0 12 6 12 13 0 7 9 31 19 53 27 55 104
256 104 272 0 6 4 12 9 12 5 0 6 5 3 10 -4 6 -2 16 4 23 5 7 13 27 16 45 3 18
12 51 19 75 13 39 42 157 51 203 2 10 4 19 5 19 1 0 3 16 5 35 2 19 4 35 5 35
1 0 3 11 5 25 2 14 6 50 11 80 4 30 8 67 8 83 1 15 3 27 6 27 4 0 5 358 0 370
-1 3 -3 25 -6 50 -2 25 -9 70 -14 100 -6 30 -12 66 -15 80 -2 14 -4 25 -5 25
-1 0 -3 11 -6 24 -7 40 -45 195 -51 211 -3 8 -7 20 -8 26 -2 6 -15 49 -30 97
-14 48 -25 88 -24 89 2 2 -4 17 -13 33 -8 17 -20 41 -26 55 -17 43 -121 253
-148 299 -24 42 -103 159 -141 211 -20 28 -196 204 -258 260 -161 144 -630
365 -955 451 -67 18 -87 23 -140 34 -8 2 -15 4 -15 5 0 1 -11 3 -25 6 -14 2
-38 6 -55 9 -95 17 -222 33 -305 40 -52 4 -62 14 -59 64 3 46 28 137 55 198 8
17 14 35 14 40 0 7 35 98 66 170 8 17 14 38 14 47 0 9 5 16 10 16 6 0 10 7 10
16 0 9 6 30 14 47 20 45 91 211 92 217 0 3 9 23 19 45 42 95 106 242 114 260
5 11 21 46 35 78 14 32 26 60 26 62 0 2 13 33 29 67 15 35 54 124 86 198 31
74 69 154 83 178 l27 44 55 -6 c30 -4 62 -8 70 -9z m-1090 -2428 c30 -11 73
-22 95 -24 22 -3 58 -7 80 -10 22 -3 65 -7 95 -10 30 -3 66 -7 80 -10 14 -2
45 -7 70 -10 25 -4 54 -9 65 -12 11 -2 31 -6 45 -8 45 -8 197 -44 220 -52 8
-4 18 -5 23 -5 4 1 7 -2 7 -7 0 -5 7 -8 17 -7 9 2 38 -8 65 -21 26 -13 53 -23
59 -23 18 0 272 -139 277 -152 2 -4 8 -8 14 -8 36 0 274 -237 346 -344 26 -39
49 -73 52 -76 17 -16 110 -238 126 -300 3 -15 24 -96 28 -115 27 -109 40 -248
40 -440 1 -195 -5 -253 -40 -386 -14 -57 -27 -108 -28 -114 -2 -12 -45 -143
-53 -165 -4 -8 -7 -17 -8 -20 -8 -22 -19 -50 -31 -78 -8 -18 -14 -39 -14 -47
0 -8 -5 -15 -12 -15 -6 0 -9 -3 -5 -6 10 -10 -148 -320 -180 -352 -7 -7 -13
-18 -13 -23 0 -8 -54 -87 -112 -164 -90 -117 -310 -336 -438 -433 -19 -15 -37
-29 -40 -32 -3 -3 -40 -30 -83 -60 -163 -114 -236 -178 -269 -237 -13 -23 -16
-47 -13 -104 4 -74 7 -94 25 -179 5 -25 14 -73 20 -107 10 -63 15 -89 26 -140
3 -16 7 -41 9 -58 1 -16 5 -37 8 -45 3 -8 8 -33 11 -55 7 -49 22 -142 30 -175
6 -28 17 -91 22 -130 1 -14 5 -36 8 -50 3 -13 8 -42 11 -65 3 -22 8 -48 11
-58 3 -10 7 -31 10 -47 2 -17 6 -42 9 -57 2 -16 6 -44 9 -63 3 -19 8 -46 11
-60 10 -48 35 -195 39 -230 2 -14 6 -34 9 -45 3 -11 9 -42 12 -70 4 -27 9 -61
12 -75 2 -14 6 -36 8 -50 1 -14 4 -25 5 -25 1 0 3 -11 4 -25 2 -14 8 -54 15
-90 6 -36 13 -76 15 -90 3 -14 5 -27 6 -30 2 -3 2 -8 1 -12 0 -4 4 -31 9 -60
6 -29 13 -68 16 -87 3 -18 8 -43 10 -55 5 -25 13 -69 19 -113 3 -18 7 -46 10
-63 3 -16 7 -42 10 -57 2 -16 6 -39 9 -53 3 -13 8 -40 11 -60 3 -20 8 -47 11
-60 2 -14 6 -68 8 -120 3 -83 -3 -138 -29 -240 -7 -32 -91 -238 -135 -335 -5
-11 -20 -46 -34 -78 -14 -31 -37 -81 -51 -111 -14 -30 -25 -60 -25 -65 0 -6
-5 -11 -10 -11 -6 0 -9 -3 -8 -8 1 -4 -10 -34 -26 -67 -54 -113 -143 -290
-156 -311 -24 -39 -88 -50 -310 -55 -117 -2 -127 -1 -133 19 -3 9 -14 42 -25
72 -18 49 -21 89 -27 370 -6 308 -10 434 -20 615 -12 212 -15 252 -19 290 -3
22 -8 69 -11 105 -12 134 -15 156 -19 190 -13 97 -17 130 -22 185 -3 33 -9 64
-12 70 -3 5 -7 21 -8 35 -2 33 -13 106 -19 133 -3 12 -7 33 -9 47 -2 14 -9 47
-15 74 -7 27 -9 51 -6 54 2 3 1 10 -4 16 -5 6 -12 25 -14 41 -12 66 -55 241
-67 275 -6 14 -11 34 -13 45 -2 11 -7 27 -10 35 -3 8 -21 65 -40 126 -33 106
-56 167 -114 314 -39 99 -204 430 -214 430 -5 0 -9 6 -9 13 0 12 -23 49 -150
246 -36 56 -70 109 -75 119 -19 32 -50 77 -61 89 -7 7 -22 29 -35 50 -13 21
-27 43 -31 48 -135 168 -255 290 -341 344 -17 11 -38 24 -45 29 -7 5 -15 19
-18 33 -9 37 -10 130 -1 136 4 2 5 9 2 14 -4 5 -3 15 2 22 4 6 8 17 10 22 10
47 169 498 220 625 3 8 7 20 9 25 1 6 15 42 32 80 16 39 29 72 30 75 2 12 72
189 98 247 8 17 14 33 14 36 0 2 8 22 17 43 9 22 17 41 18 44 1 3 5 14 10 25
4 11 23 56 40 100 18 44 36 89 40 100 5 11 9 22 9 25 1 3 7 15 14 28 7 12 10
22 6 22 -3 0 -2 6 4 13 5 6 29 59 52 117 23 58 46 111 52 118 6 6 8 12 5 12
-5 0 10 35 73 175 13 28 24 55 26 60 2 9 55 129 117 265 11 25 21 47 22 50 1
3 10 23 20 45 83 179 115 253 115 264 0 6 5 11 10 11 6 0 10 5 10 11 0 5 24
64 54 130 30 65 51 119 48 119 -4 0 -2 4 3 8 14 10 75 141 75 161 0 6 5 11 10
11 6 0 10 7 10 15 0 13 27 80 49 125 7 13 47 39 61 40 3 0 30 -9 60 -21z
m-1738 -4088 c4 -1 32 -34 63 -73 30 -40 87 -113 126 -163 38 -49 80 -106 92
-125 11 -19 24 -37 27 -40 3 -3 33 -50 66 -105 88 -144 222 -419 240 -489 3
-15 10 -29 15 -32 5 -3 9 -14 9 -25 0 -10 4 -19 8 -19 4 0 8 -8 9 -17 0 -10
13 -52 28 -93 28 -77 44 -128 50 -167 2 -12 6 -27 10 -32 3 -6 8 -20 11 -31 2
-11 7 -30 10 -42 34 -133 62 -267 78 -378 2 -14 6 -36 9 -50 4 -14 9 -45 12
-70 3 -25 7 -56 9 -70 2 -14 7 -59 11 -100 4 -41 9 -91 11 -110 2 -19 6 -72 8
-118 3 -45 7 -86 9 -90 2 -4 5 -27 6 -52 1 -25 4 -65 5 -90 11 -138 19 -293
20 -347 1 -35 4 -63 8 -63 4 0 5 -6 3 -12 -8 -22 -13 -78 -6 -78 3 0 6 -42 6
-92 0 -51 1 -97 4 -101 2 -5 5 -72 7 -150 2 -78 5 -191 8 -252 6 -152 9 -147
-77 -144 -39 1 -83 6 -97 10 -118 35 -175 52 -184 54 -41 8 -73 19 -85 29 -8
6 -17 10 -20 8 -6 -3 -104 30 -156 53 -16 8 -54 23 -84 35 -78 31 -203 91
-223 108 -10 8 -18 12 -18 8 0 -3 -19 6 -42 21 -72 45 -122 78 -133 86 -5 4
-24 18 -41 30 -95 67 -228 192 -294 275 -19 24 -45 56 -57 70 -13 15 -23 32
-23 39 0 6 -3 13 -8 15 -34 14 -201 365 -236 493 -2 6 -6 17 -9 25 -10 23 -48
168 -63 235 -18 83 -11 217 14 288 11 31 17 57 14 57 -4 0 -1 4 6 8 7 5 15 19
17 33 3 13 9 33 14 44 5 11 20 52 34 90 14 39 42 115 63 170 21 55 39 102 40
105 0 3 6 19 13 35 7 17 19 46 26 66 7 19 22 55 32 80 27 59 107 253 109 259
0 3 10 25 21 50 11 25 44 99 73 165 28 66 58 134 65 150 14 32 50 113 67 155
6 14 13 34 15 44 2 11 11 28 20 38 9 10 13 18 10 18 -3 0 5 24 18 53 35 78 58
131 61 142 1 6 18 44 37 87 36 76 56 98 86 93 9 -2 19 -4 23 -4z"/>
</g>
</svg>
